<svg width="40" height="40" viewBox="0 0 40 40" fill="none" xmlns="http://www.w3.org/2000/svg">
  <!-- Statistics Bars -->
  <rect x="3" y="20" width="2" height="20" fill="#FFDB6E"/>
  <rect x="12" y="15" width="2" height="25" fill="#FFDB6E"/>
  <rect x="21" y="25" width="2" height="15" fill="#FFDB6E"/>
  <rect x="30" y="15" width="2" height="25" fill="#FFDB6E"/>
  <rect x="37" y="20" width="2" height="20" fill="#FFDB6E"/>

  <!-- Magnifying Glass -->
  <circle cx="20" cy="20" r="10" fill="url(#paint2_linear)" stroke="#fff" stroke-width="2"/>
  <line x1="28" y1="28" x2="35" y2="35" stroke="white" stroke-width="2"/>
  <line x1="30" y1="30" x2="35" y2="35" stroke="white" stroke-width="2"/>

  <!-- Background -->
  <path opacity="0.15" fill-rule="evenodd" clip-rule="evenodd" d="M4 1C2.89543 1 2 1.89543 2 3V37C2 38.1046 2.89543 39 4 39H36C37.1046 39 38 38.1046 38 37V3C38 1.89543 37.1046 1 36 1H4V1Z" fill="url(#paint0_linear)"/>
  
  <!-- Gradients -->
  <defs>
    <linearGradient id="paint0_linear" x1="5.12767" y1="2" x2="35.7018" y2="18.5237" gradientUnits="userSpaceOnUse">
      <stop offset="0.259336" stop-color="#FFDB6E"/>
      <stop offset="1" stop-color="#FFBC5E"/>
    </linearGradient>
    <linearGradient id="paint2_linear" x1="20" y1="10" x2="20" y2="30" gradientUnits="userSpaceOnUse">
      <stop offset="0.259336" stop-color="#FFDB6E"/>
      <stop offset="1" stop-color="#FFBC5E"/>
    </linearGradient>
  </defs>
</svg>
